PathFileType	4	(X/Y/Z)	C:\Users\86182\Documents\cortex\Trimmed_M3_L13.trc
DataRate	CameraRate	NumFrames	NumMarkers	Units	OrigDataRate	OrigDataStartFrame	OrigNumFrames
100.00	100.00	       130	2	mm	100.00	1	       901
Frame#	Time	gripper			box			
		X1	Y1	Z1	X2	Y2	Z2	

1	0.000	274.78088	148.74901	192.87949	278.11118	147.08363	57.41437	
2	0.010	274.79468	148.75250	192.89059	278.09702	147.07973	57.44291	
3	0.020	274.77295	148.74701	192.87311	278.07404	147.08342	57.37444	
4	0.030	274.79858	148.75349	192.89375	278.08490	147.07405	57.44014	
5	0.040	274.79230	148.74841	192.89853	278.10516	147.06505	57.44180	
6	0.050	274.77609	148.74884	192.87270	278.09848	147.06970	57.42603	
7	0.060	274.79858	148.75349	192.89375	278.09622	147.10416	57.42215	
8	0.070	274.78482	148.75000	192.88268	278.08911	147.07314	57.42189	
9	0.080	274.77490	148.74748	192.87471	278.06110	147.09804	57.40758	
10	0.090	274.79468	148.75250	192.89059	278.09460	147.05775	57.44364	
11	0.100	274.78088	148.74901	192.87949	278.08853	147.07518	57.40345	
12	0.110	274.77490	148.74748	192.87471	278.10626	147.06845	57.43678	
13	0.120	274.78677	148.75050	192.88425	278.09570	147.06178	57.44981	
14	0.130	274.79663	148.75299	192.89218	278.10690	147.07680	57.42222	
15	0.140	274.78677	148.75050	192.88425	278.10880	147.07301	57.42816	
16	0.150	274.81271	148.75916	192.89926	278.10403	147.06163	57.44682	
17	0.160	274.79071	148.75150	192.88744	278.09857	147.07635	57.41400	
18	0.170	274.80057	148.75401	192.89532	278.10550	147.08499	57.40572	
19	0.180	274.79071	148.75150	192.88744	278.10321	147.05525	57.45403	
20	0.190	274.80176	148.75533	192.89336	278.09329	147.07394	57.43719	
21	0.200	274.80643	148.75548	192.90005	278.08124	147.07672	57.45598	
22	0.210	274.81616	148.75795	192.90790	278.09024	147.08562	57.44952	
23	0.220	274.78677	148.75050	192.88425	278.10233	147.08153	57.40859	
24	0.230	274.80057	148.75401	192.89532	278.10297	147.05823	57.45187	
25	0.240	274.79858	148.75349	192.89375	278.10599	147.08730	57.41439	
26	0.250	274.80252	148.75449	192.89690	278.08676	147.09377	57.43085	
27	0.260	274.79782	148.75435	192.89018	278.10684	147.06403	57.43958	
28	0.270	274.84500	148.77667	192.89880	278.07773	147.10088	57.45782	
29	0.280	274.79269	148.75200	192.88901	278.10571	147.06676	57.43927	
30	0.290	274.82651	148.76784	192.89568	278.09702	147.07973	57.44291	
31	0.300	274.82440	148.76210	192.90866	278.08084	147.09708	57.45576	
32	0.310	274.80957	148.75731	192.89966	278.08398	147.09325	57.45367	
33	0.320	274.82532	148.76648	192.89764	278.10318	147.07224	57.43884	
34	0.330	274.81900	148.76282	192.89845	278.07443	147.09065	57.47294	
35	0.340	274.83115	148.76796	192.90237	278.08301	147.10384	57.44576	
36	0.350	274.82126	148.76027	192.90906	278.10901	147.07692	57.42428	
37	0.360	274.79071	148.75150	192.88744	278.10172	147.08105	57.43336	
38	0.370	274.80057	148.75401	192.89532	278.09863	147.08479	57.43540	
39	0.380	274.82440	148.76210	192.90866	278.10297	147.05823	57.45187	
40	0.390	274.78287	148.74951	192.88107	278.09760	147.08026	57.41811	
41	0.400	274.83380	148.76758	192.90750	278.09155	147.06267	57.46816	
42	0.410	274.79858	148.75349	192.89375	278.09952	147.07428	57.44335	
43	0.420	274.79663	148.75299	192.89218	278.10443	147.08163	57.41068	
44	0.430	274.82751	148.76392	192.90829	278.10782	147.07196	57.43081	
45	0.440	274.79468	148.75250	192.89059	278.10736	147.07185	57.43175	
46	0.450	274.79858	148.75349	192.89375	278.06656	147.10829	57.39479	
47	0.460	274.80444	148.75497	192.89848	278.10156	147.06653	57.43517	
48	0.470	274.79858	148.75349	192.89375	278.10757	147.08510	57.40778	
49	0.480	274.78482	148.75000	192.88268	278.08896	147.06583	57.42277	
50	0.490	274.81815	148.75845	192.90947	278.10516	147.06505	57.44180	
51	0.500	274.79468	148.75250	192.89059	278.11118	147.08363	57.41437	
52	0.510	274.78482	148.75000	192.88268	278.09528	147.06619	57.42899	
53	0.520	274.80835	148.75597	192.90163	278.10474	147.07004	57.43222	
54	0.530	274.78879	148.75101	192.88583	278.08646	147.07072	57.41110	
55	0.540	274.78482	148.75000	192.88268	278.09113	147.07501	57.45755	
56	0.550	274.81815	148.75845	192.90947	278.07822	147.05904	57.43582	
57	0.560	274.78677	148.75050	192.88425	278.06674	147.08876	57.40594	
58	0.570	274.82874	148.76526	192.90633	278.09583	147.06789	57.42648	
59	0.580	274.80057	148.75401	192.89532	278.05634	147.11276	57.43803	
60	0.590	274.79663	148.75299	192.89218	278.08429	147.09734	57.39693	
61	0.600	274.79663	148.75299	192.89218	278.09692	147.07127	57.42147	
62	0.610	274.80444	148.75497	192.89848	278.06830	147.12616	57.42244	
63	0.620	274.79742	148.75735	192.88103	278.06036	147.10042	57.42438	
64	0.630	274.82849	148.76834	192.89725	278.10947	147.07703	57.42334	
65	0.640	274.79465	148.75549	192.88211	278.08151	147.09743	57.43087	
66	0.650	274.79858	148.75349	192.89375	278.10788	147.07352	57.42927	
67	0.660	274.78879	148.75101	192.88583	278.07690	147.08217	57.46449	
68	0.670	274.79071	148.75150	192.88744	278.09979	147.09906	57.40886	
69	0.680	274.77890	148.74850	192.87790	278.09793	147.06799	57.42854	
70	0.690	274.78879	148.75101	192.88583	278.08966	147.07541	57.43056	
71	0.700	274.77295	148.74701	192.87311	278.06805	147.10736	57.41056	
72	0.710	274.80176	148.75533	192.89336	278.09705	147.07915	57.43176	
73	0.720	274.79663	148.75299	192.89218	278.10596	147.08006	57.41522	
74	0.730	274.79663	148.75299	192.89218	278.09399	147.08110	57.40032	
75	0.740	274.77295	148.74701	192.87311	278.10611	147.06612	57.43912	
76	0.750	274.80444	148.75497	192.89848	278.10123	147.07816	57.41355	
77	0.760	274.80139	148.76363	192.86935	278.09451	147.08278	57.39785	
78	0.770	274.82364	148.76294	192.90515	278.09708	147.07796	57.40942	
79	0.780	274.80057	148.75401	192.89532	278.09119	147.07185	57.41351	
80	0.790	274.77295	148.74701	192.87311	278.10022	147.08142	57.40653	
81	0.800	274.81616	148.75795	192.90790	278.09052	147.06424	57.42736	
82	0.810	274.78879	148.75101	192.88583	278.10211	147.04565	57.46450	
83	0.820	274.81033	148.75647	192.90320	278.05463	147.05025	57.40751	
84	0.830	274.79422	148.76215	192.90735	278.07513	147.04671	57.44030	
85	0.840	274.75742	148.77983	192.92508	278.00677	146.99594	57.44931	
86	0.850	274.74500	148.74216	192.93350	277.92630	146.93562	57.47992	
87	0.860	274.72974	148.72533	192.94019	277.89618	146.92426	57.51602	
88	0.870	274.68530	148.74097	192.95161	277.90326	146.91678	57.47966	
89	0.880	274.69153	148.71507	192.96829	277.84778	146.92365	57.51423	
90	0.890	274.62543	148.68259	193.08066	277.82858	146.87953	57.56457	
91	0.900	274.47083	148.58582	193.34966	277.80972	146.86873	57.58656	
92	0.910	274.45929	148.59567	193.44469	277.77545	146.88139	57.68002	
93	0.920	274.18817	148.63582	193.59955	277.65826	146.85950	57.83690	
94	0.930	274.09903	148.74464	193.72433	277.50394	146.82359	57.97309	
95	0.940	274.07089	148.73207	194.00952	277.56961	146.77379	58.06495	
96	0.950	274.28232	148.72260	194.08972	277.66711	146.78110	58.34184	
97	0.960	274.22324	148.61682	194.28360	277.45804	146.75945	58.65231	
98	0.970	274.41959	148.69949	194.58492	277.44269	146.71365	58.80138	
99	0.980	274.62265	148.59756	194.86186	277.58981	146.82310	59.11045	
100	0.990	274.88425	148.48428	194.91940	277.93570	146.93916	59.50981	
101	1.000	274.43744	148.74625	195.62018	277.73831	146.89381	59.79320	
102	1.010	274.10800	148.82306	196.12076	277.61133	146.97041	60.25378	
103	1.020	274.28506	148.83307	196.54572	277.08533	146.98526	60.74301	
104	1.030	274.48898	148.79510	196.60443	277.49527	147.06165	61.05014	
105	1.040	274.95392	148.61198	196.99503	277.64880	146.99127	61.28885	
106	1.050	274.56421	148.70848	197.46942	277.64328	147.04262	61.71523	
107	1.060	274.00372	148.94414	198.29274	277.26068	147.12984	62.42638	
108	1.070	274.30511	148.94495	198.35092	277.14618	147.17564	62.88394	
109	1.080	274.40976	148.86748	198.69278	277.33447	147.31291	63.21738	
110	1.090	274.39417	148.90187	199.20602	277.31686	147.36090	63.45023	
111	1.100	274.46594	148.90488	199.64220	277.45532	147.24109	63.83965	
112	1.110	274.22260	149.02121	200.22394	277.47580	147.19801	64.59789	
113	1.120	274.37427	148.97385	200.54378	277.33994	147.31958	65.19582	
114	1.130	274.36356	148.97710	201.09062	277.40115	147.33327	65.45966	
115	1.140	274.32837	148.99263	201.37997	277.34808	147.35204	65.67738	
116	1.150	274.44122	148.87643	201.84663	277.27100	147.30043	66.08761	
117	1.160	274.50555	148.95511	202.43559	277.44547	147.28529	66.62192	
118	1.170	274.66422	148.97110	202.72137	277.37302	147.36610	67.26730	
119	1.180	274.31210	148.97119	203.20830	277.52441	147.21410	67.54410	
120	1.190	274.74915	148.90015	203.36311	277.52258	147.21497	67.78429	
121	1.200	274.95529	148.72737	204.06587	277.51169	147.25952	68.22468	
122	1.210	274.64426	148.95499	204.53072	277.36667	147.32924	68.54718	
123	1.220	274.62881	148.89478	204.91989	277.23502	147.20204	69.11636	
124	1.230	274.69958	148.98341	205.18336	277.48245	147.24518	69.60852	
125	1.240	274.69669	148.95378	205.72469	277.64801	147.17485	69.95578	
126	1.250	274.36057	149.00525	206.05931	277.67950	147.33934	70.29091	
127	1.260	274.75674	148.98596	206.48331	277.38525	147.27168	70.84231	
128	1.270	275.03912	148.81776	207.04915	277.43625	147.19870	71.19923	
129	1.280	274.73224	148.90248	207.48709	277.52243	147.24112	71.69948	
130	1.290	274.78415	148.89977	207.80565	277.71118	147.24265	72.16857	
